<?xml version="1.0" encoding="UTF-8"?>
<svg width="180px" height="180px" viewBox="0 0 180 180" version="1.1" xmlns="http://www.w3.org/2000/svg" xmlns:xlink="http://www.w3.org/1999/xlink">
    <!-- Generator: Sketch 49.3 (51167) - http://www.bohemiancoding.com/sketch -->
    <title>switch_180px</title>
    <desc>Created with Sketch.</desc>
    <defs>
        <rect id="path-1" x="0" y="0" width="180" height="180"></rect>
        <rect id="path-3" x="3" y="5" width="34" height="14" rx="7"></rect>
        <rect id="path-5" x="-7.63833441e-14" y="0" width="20" height="20" rx="10"></rect>
        <filter x="-45.0%" y="-30.0%" width="190.0%" height="190.0%" filterUnits="objectBoundingBox" id="filter-7">
            <feOffset dx="0" dy="1" in="SourceAlpha" result="shadowOffsetOuter1"></feOffset>
            <feGaussianBlur stdDeviation="1.5" in="shadowOffsetOuter1" result="shadowBlurOuter1"></feGaussianBlur>
            <feColorMatrix values="0 0 0 0 0   0 0 0 0 0   0 0 0 0 0  0 0 0 0.2 0" type="matrix" in="shadowBlurOuter1" result="shadowMatrixOuter1"></feColorMatrix>
            <feOffset dx="0" dy="2" in="SourceAlpha" result="shadowOffsetOuter2"></feOffset>
            <feGaussianBlur stdDeviation="1" in="shadowOffsetOuter2" result="shadowBlurOuter2"></feGaussianBlur>
            <feColorMatrix values="0 0 0 0 0   0 0 0 0 0   0 0 0 0 0  0 0 0 0.12 0" type="matrix" in="shadowBlurOuter2" result="shadowMatrixOuter2"></feColorMatrix>
            <feOffset dx="0" dy="0" in="SourceAlpha" result="shadowOffsetOuter3"></feOffset>
            <feGaussianBlur stdDeviation="1" in="shadowOffsetOuter3" result="shadowBlurOuter3"></feGaussianBlur>
            <feColorMatrix values="0 0 0 0 0   0 0 0 0 0   0 0 0 0 0  0 0 0 0.14 0" type="matrix" in="shadowBlurOuter3" result="shadowMatrixOuter3"></feColorMatrix>
            <feMerge>
                <feMergeNode in="shadowMatrixOuter1"></feMergeNode>
                <feMergeNode in="shadowMatrixOuter2"></feMergeNode>
                <feMergeNode in="shadowMatrixOuter3"></feMergeNode>
            </feMerge>
        </filter>
        <rect id="path-8" x="3" y="5" width="34" height="14" rx="7"></rect>
        <rect id="path-10" x="-7.63833441e-14" y="0" width="20" height="20" rx="10"></rect>
        <filter x="-45.0%" y="-30.0%" width="190.0%" height="190.0%" filterUnits="objectBoundingBox" id="filter-12">
            <feOffset dx="0" dy="1" in="SourceAlpha" result="shadowOffsetOuter1"></feOffset>
            <feGaussianBlur stdDeviation="1.5" in="shadowOffsetOuter1" result="shadowBlurOuter1"></feGaussianBlur>
            <feColorMatrix values="0 0 0 0 0   0 0 0 0 0   0 0 0 0 0  0 0 0 0.2 0" type="matrix" in="shadowBlurOuter1" result="shadowMatrixOuter1"></feColorMatrix>
            <feOffset dx="0" dy="2" in="SourceAlpha" result="shadowOffsetOuter2"></feOffset>
            <feGaussianBlur stdDeviation="1" in="shadowOffsetOuter2" result="shadowBlurOuter2"></feGaussianBlur>
            <feColorMatrix values="0 0 0 0 0   0 0 0 0 0   0 0 0 0 0  0 0 0 0.12 0" type="matrix" in="shadowBlurOuter2" result="shadowMatrixOuter2"></feColorMatrix>
            <feOffset dx="0" dy="0" in="SourceAlpha" result="shadowOffsetOuter3"></feOffset>
            <feGaussianBlur stdDeviation="1" in="shadowOffsetOuter3" result="shadowBlurOuter3"></feGaussianBlur>
            <feColorMatrix values="0 0 0 0 0   0 0 0 0 0   0 0 0 0 0  0 0 0 0.14 0" type="matrix" in="shadowBlurOuter3" result="shadowMatrixOuter3"></feColorMatrix>
            <feMerge>
                <feMergeNode in="shadowMatrixOuter1"></feMergeNode>
                <feMergeNode in="shadowMatrixOuter2"></feMergeNode>
                <feMergeNode in="shadowMatrixOuter3"></feMergeNode>
            </feMerge>
        </filter>
        <path d="M12,2 C6.48,2 2,6.48 2,12 C2,17.52 6.48,22 12,22 C17.52,22 22,17.52 22,12 C22,6.48 17.52,2 12,2 Z M12,20 C7.58,20 4,16.42 4,12 C4,7.58 7.58,4 12,4 C16.42,4 20,7.58 20,12 C20,16.42 16.42,20 12,20 Z M12,17 C14.7614237,17 17,14.7614237 17,12 C17,9.23857625 14.7614237,7 12,7 C9.23857625,7 7,9.23857625 7,12 C7,14.7614237 9.23857625,17 12,17 Z" id="path-13"></path>
        <path d="M12,2 C6.48,2 2,6.48 2,12 C2,17.52 6.48,22 12,22 C17.52,22 22,17.52 22,12 C22,6.48 17.52,2 12,2 Z M12,20 C7.58,20 4,16.42 4,12 C4,7.58 7.58,4 12,4 C16.42,4 20,7.58 20,12 C20,16.42 16.42,20 12,20 Z" id="path-15"></path>
        <path d="M19,3 L5,3 C3.89,3 3,3.9 3,5 L3,19 C3,20.1 3.89,21 5,21 L19,21 C20.11,21 21,20.1 21,19 L21,5 C21,3.9 20.11,3 19,3 Z M10,17 L5,12 L6.41,10.59 L10,14.17 L17.59,6.58 L19,8 L10,17 Z" id="path-17"></path>
        <path d="M19,5 L19,19 L5,19 L5,5 L19,5 Z M19,3 L5,3 C3.9,3 3,3.9 3,5 L3,19 C3,20.1 3.9,21 5,21 L19,21 C20.1,21 21,20.1 21,19 L21,5 C21,3.9 20.1,3 19,3 Z" id="path-19"></path>
    </defs>
    <g id="switch_180px" stroke="none" stroke-width="1" fill="none" fill-rule="evenodd">
        <g id="Group">
            <mask id="mask-2" fill="white">
                <use xlink:href="#path-1"></use>
            </mask>
            <use id="Mask" fill="#FAFAFA" xlink:href="#path-1"></use>
            <g id="Selection-Control-/-Switch-/-On-/-Enabled" mask="url(#mask-2)">
                <g transform="translate(70.000000, 50.000000)">
                    <g id="Selection-Control-/-Switch-/-Elements-/-Track">
                        <mask id="mask-4" fill="white">
                            <use xlink:href="#path-3"></use>
                        </mask>
                        <use id="Surface" fill="#FAFAFA" fill-rule="evenodd" xlink:href="#path-3"></use>
                        <g id="✱-/-Color-/-Icons-/-Black-/-Active" opacity="0.379999995" mask="url(#mask-4)" fill="#000000" fill-rule="evenodd">
                            <rect id="Rectangle-13" opacity="0.87" x="0" y="0" width="40" height="24"></rect>
                        </g>
                    </g>
                    <g id="Selection-Control-/-Switch-/-Elements-/-Thumb" transform="translate(18.000000, 2.000000)">
                        <mask id="mask-6" fill="white">
                            <use xlink:href="#path-5"></use>
                        </mask>
                        <g id="Surface">
                            <use fill="black" fill-opacity="1" filter="url(#filter-7)" xlink:href="#path-5"></use>
                            <use fill="#FAFAFA" fill-rule="evenodd" xlink:href="#path-5"></use>
                        </g>
                        <g id="✱-/-Color-/-Icons-/-Black-/-Active" mask="url(#mask-6)" fill="#000000" fill-rule="evenodd" opacity="0.87">
                            <rect id="Rectangle-13" x="0" y="0" width="20" height="20"></rect>
                        </g>
                    </g>
                </g>
            </g>
            <g id="Selection-Control-/-Switch-/-Off-/-Enabled" mask="url(#mask-2)">
                <g transform="translate(70.000000, 106.000000)">
                    <g id="Selection-Control-/-Switch-/-Elements-/-Track">
                        <mask id="mask-9" fill="white">
                            <use xlink:href="#path-8"></use>
                        </mask>
                        <use id="Surface" fill="#FAFAFA" fill-rule="evenodd" xlink:href="#path-8"></use>
                        <g id="✱-/-Color-/-Icons-/-Black-/-Inactive" opacity="0.379999995" mask="url(#mask-9)" fill="#000000" fill-rule="evenodd">
                            <rect id="Rectangle" opacity="0.54" x="0" y="0" width="40" height="24"></rect>
                        </g>
                    </g>
                    <g id="Selection-Control-/-Switch-/-Elements-/-Thumb" transform="translate(2.000000, 2.000000)">
                        <mask id="mask-11" fill="white">
                            <use xlink:href="#path-10"></use>
                        </mask>
                        <g id="Surface">
                            <use fill="black" fill-opacity="1" filter="url(#filter-12)" xlink:href="#path-10"></use>
                            <use fill="#FAFAFA" fill-rule="evenodd" xlink:href="#path-10"></use>
                        </g>
                        <g id="✱-/-Color-/-Surface-/-Light" mask="url(#mask-11)" fill="#FAFAFA" fill-rule="evenodd">
                            <rect id="Rectangle-13" x="0" y="0" width="20" height="20"></rect>
                        </g>
                    </g>
                </g>
            </g>
        </g>
    </g>
</svg>